<svg width="81" height="75" viewBox="0 0 81 75" fill="none" xmlns="http://www.w3.org/2000/svg">
<path d="M42.8713 0.256415C58.6926 -1.84539 74.853 9.22503 79.4792 24.2526C79.6221 24.7169 79.7537 25.1841 79.8736 25.654C82.7858 37.072 79.9755 52.4713 72.3164 61.6625C65.1757 70.2315 54.4939 73.6732 43.6996 74.5242C30.8341 75.5383 16.4825 73.2094 8.17092 63.3367C4.78503 59.3148 2.68955 54.3462 1.31836 49.2706C-0.674161 41.8959 0.227137 36.7239 2.35288 29.7701C4.69455 22.1099 11.0724 12.0958 17.8236 7.53554C24.4993 3.02611 35.0218 1.29916 42.8713 0.256415Z" fill="#1B2746"/>
<path d="M47.8949 65.8243L48.2956 67.5229L49.7256 68.5237L48.2339 69.4297L47.7242 71.0988L46.4015 69.9601L44.6565 69.9911L45.3307 68.3813L44.7621 66.7314L46.5014 66.8752L47.8949 65.8243Z" fill="#FDCC13"/>
<path d="M58.5251 20.7024L60.3443 21.6369L62.3237 21.1229L61.9972 23.1419L63.0976 24.8658L61.0766 25.1789L59.7771 26.7582L58.8547 24.933L56.9512 24.1851L58.4021 22.7438L58.5251 20.7024Z" fill="#FDCC13"/>
<path d="M10.3698 35.1517L13.0741 36.541L16.0169 35.777L15.5314 38.7784L17.1673 41.3411L14.1628 41.8067L12.2311 44.1546L10.8598 41.441L8.03003 40.3294L10.1869 38.1866L10.3698 35.1517Z" fill="#FDCC13"/>
<path d="M43.6544 6.89282L44.9616 8.89592L47.2708 9.52019L45.7696 11.3824L45.8895 13.7714L43.6544 12.9193L41.4194 13.7714L41.5391 11.3824L40.0381 9.52019L42.3471 8.89592L43.6544 6.89282Z" fill="#FDCC13"/>
<path d="M26.6609 67.0479C26.4818 66.3219 25.6563 66.5081 25.2433 66.9193C24.6942 67.4658 24.7528 68.3033 25.2107 68.8866C26.2383 70.1954 28.5377 69.569 28.9855 68.0208C29.226 67.1898 28.7274 66.3952 27.9867 66.0339C27.2282 65.664 26.2643 65.6814 25.5138 66.0683C24.8014 66.4356 24.2966 67.1902 24.3283 68.007C24.3612 68.8534 24.8518 69.6918 25.7052 69.9349C26.654 70.2052 27.6227 69.6376 27.92 68.7117C28.2177 67.7841 27.801 66.7162 26.7907 66.4779C26.1767 66.3331 25.5285 66.6179 25.2882 67.2155C25.061 67.7805 25.2398 68.5019 25.8094 68.8059C25.3947 68.5846 25.2806 67.9804 25.5989 67.652C26.0178 67.2197 26.7521 67.3976 26.8561 67.954C26.8125 67.721 26.828 67.9941 26.8128 68.0824C26.7998 68.1571 26.7111 68.1635 26.6975 68.2C26.7208 68.1375 26.8275 68.1561 26.905 68.1557C26.994 68.1538 27.0827 68.1576 27.1712 68.1673C27.1283 68.1802 27.0918 68.1733 27.0616 68.1467C27.0024 68.1085 27.0269 68.1215 27.1352 68.1854C26.9685 67.377 26.8941 67.1151 26.9121 67.4001C26.8875 67.4126 26.7502 67.5896 26.7148 67.6106C26.6117 67.672 26.55 67.7056 26.4422 67.6771C26.4254 67.6727 26.3664 67.622 26.3972 67.6737C26.4112 67.697 26.3994 67.627 26.4419 67.5686C26.5291 67.4487 26.7039 67.2222 26.6609 67.0479Z" fill="#FDCC13"/>
<path d="M15.7248 29.1182C15.799 29.187 15.9035 29.24 15.9365 29.3413C16.0622 29.7254 16.69 29.6817 16.6706 29.2419C16.6515 28.8089 16.2453 28.6054 15.8537 28.5924C15.3638 28.5761 14.904 28.9677 14.7667 29.4249C14.6136 29.9348 14.7827 30.5016 15.1783 30.8547C15.6925 31.3139 16.3811 31.3115 16.9693 30.9938C17.888 30.4975 18.3858 29.1939 17.7504 28.2861C17.0586 27.2977 15.4792 27.34 14.851 28.3919C14.6471 28.7331 14.5719 29.1831 14.6797 29.569C14.8353 30.1253 15.2842 30.4875 15.8487 30.5633C16.3285 30.6278 16.7955 30.4997 17.1592 30.169C17.5063 29.8537 17.6179 29.4605 17.6765 29.0123C17.7138 28.7269 17.5104 28.3045 17.3055 28.1164C17.0962 27.9243 16.8607 27.8059 16.578 27.768C15.9678 27.6861 15.3485 28.0615 15.1878 28.6756C15.2165 28.612 15.2451 28.5484 15.2737 28.4847C15.6311 28.1705 15.7313 28.064 15.5744 28.1654C15.4785 28.2219 15.548 28.2063 15.7827 28.1182C15.9287 28.0489 16.0794 28.0348 16.2347 28.0761C16.4847 28.2683 16.7345 28.4605 16.9845 28.6526C17.1417 29.0217 17.1815 29.3603 16.9327 29.6814C16.8864 29.741 16.8075 29.8227 16.7582 29.8522C16.8413 29.8067 16.7852 29.8296 16.5896 29.9211C16.7093 29.8898 16.6549 29.8938 16.4265 29.9331C16.6213 29.9298 16.1191 29.8565 16.3143 29.9146C16.1424 29.8635 15.9646 29.7607 15.8682 29.6029C15.8081 29.4392 15.7893 29.3994 15.8115 29.4837C15.8316 29.5706 15.8249 29.5254 15.7911 29.3481C15.814 29.5708 15.8306 29.1141 15.7883 29.3225C15.7501 29.4323 15.7595 29.4108 15.8166 29.2582C15.7668 29.336 15.7688 29.3399 15.8224 29.2698C15.8795 29.2022 15.8776 29.2033 15.8168 29.2729C15.7507 29.3336 15.7498 29.3378 15.8139 29.286C15.8826 29.236 15.8764 29.2376 15.7955 29.2907C15.8647 29.2504 15.9393 29.2328 16.0195 29.2376C15.8465 29.2478 16.127 29.2541 16.1786 29.282C16.2599 29.3262 16.3125 29.3977 16.3318 29.4893C16.3518 29.5841 16.3262 29.64 16.3009 29.7276C16.2237 29.8215 16.2463 29.791 16.3688 29.6358C16.357 29.6519 16.3453 29.668 16.3335 29.684C16.4458 29.6053 16.2901 29.7221 16.3883 29.6514C16.4503 29.6069 16.5069 29.5584 16.5614 29.506C16.3852 29.3299 16.209 29.1536 16.0329 28.9775C15.9983 29.013 15.9637 29.0486 15.9292 29.0841C15.9829 29.0772 16.0367 29.0703 16.0904 29.0633C16.0232 29.0301 15.9637 28.9862 15.9117 28.9314C15.7871 28.8161 15.6 29.0023 15.7248 29.1182Z" fill="#FDCC13"/>
<path d="M65.1631 34.8529C65.1521 34.8456 65.141 34.8384 65.13 34.831C64.9959 34.7425 64.8104 34.755 64.6753 34.831C63.8902 35.2729 63.5745 36.3388 64.0813 37.1087C64.6409 37.9588 65.7853 38.1545 66.5024 37.3773C67.2596 36.5567 66.9752 35.1358 65.8618 34.8105C64.7487 34.4853 63.5215 35.579 63.8932 36.7216C64.0741 37.2773 64.6425 37.6375 65.2246 37.4775C65.8369 37.3092 66.0766 36.7249 65.9805 36.1461C66.0287 36.4367 65.9649 36.782 65.6408 36.8634C65.3225 36.9431 65.06 36.6874 64.9729 36.4115C64.9696 36.3456 64.9683 36.3418 64.9689 36.3999C64.9676 36.4722 64.9692 36.4543 64.9736 36.3463C65.0008 36.299 65.0187 36.2622 65.052 36.2182C65.0613 36.206 65.2193 36.0937 65.114 36.1652C65.0118 36.2347 65.128 36.1209 65.1491 36.1586C64.9323 35.7701 65.6694 35.1871 65.1631 34.8529Z" fill="#FDCC13"/>
<path d="M56.3115 59.8733C56.0092 59.766 55.6728 59.8805 55.4591 60.1061C55.1432 60.4397 55.1157 60.9564 55.3958 61.3191C55.6158 61.6037 55.9731 61.7687 56.3353 61.7542C56.8547 61.7333 57.2419 61.4154 57.4089 60.9316C57.5555 60.5069 57.2417 59.9746 56.8097 59.8762C56.3802 59.7784 55.8523 60.0056 55.7544 60.4754C55.7514 60.4942 55.7467 60.5124 55.7401 60.5301C55.7687 60.4621 55.7975 60.3941 55.8262 60.3261C55.815 60.3526 55.8033 60.3744 55.7874 60.3984C55.8316 60.3411 55.8758 60.2838 55.9202 60.2265C55.9029 60.2481 55.8833 60.2665 55.8655 60.2875C55.8019 60.3627 55.7836 60.2995 55.95 60.2295C55.8591 60.2678 55.8836 60.2209 56.0411 60.1969C56.0143 60.201 55.9879 60.2113 55.9609 60.2158C56.0293 60.2066 56.0978 60.1974 56.1662 60.1882C56.143 60.1905 56.1056 60.1839 56.0838 60.1911C56.2372 60.2176 56.2771 60.2215 56.2038 60.2032C56.2455 60.2209 56.2873 60.2387 56.3288 60.2563C56.23 60.2082 56.4551 60.3837 56.3854 60.3032C56.455 60.4041 56.4718 60.426 56.4361 60.3689C56.4757 60.4765 56.4891 60.5055 56.4762 60.456C56.4646 60.4069 56.4688 60.4376 56.4889 60.5479C56.491 60.5019 56.4892 60.508 56.4833 60.566C56.4706 60.6772 56.4925 60.5658 56.4973 60.541C56.5183 60.4342 56.4634 60.5949 56.4841 60.5547C56.532 60.4614 56.4324 60.6024 56.4901 60.5495C56.7291 60.3298 56.5826 59.9695 56.3115 59.8733Z" fill="#FDCC13"/>
<path d="M72.1107 61.6898C72.2768 61.5641 72.2805 61.3536 72.1696 61.1863C72.0431 60.9958 71.8196 60.9191 71.5985 60.9316C70.8664 60.973 70.5615 61.847 71.0637 62.3713C71.5756 62.9057 72.5688 62.8431 73.0179 62.2621C73.1758 62.0576 73.271 61.8396 73.2682 61.5776C73.2641 61.182 72.9801 60.8332 72.6073 60.7202C72.0033 60.537 71.35 60.9667 71.3576 61.6206C71.3636 62.1378 71.8181 62.5319 72.3296 62.4631C72.8729 62.3901 73.1308 61.9013 73.0428 61.3925C73.0409 61.3816 73.0392 61.3709 73.0373 61.36C73.0373 61.5116 73.0373 61.6632 73.0373 61.8148C73.0403 61.8054 73.0434 61.796 73.0465 61.7867C72.9734 61.9122 72.9004 62.0376 72.8272 62.1631C72.4496 61.922 72.0718 61.6811 71.6941 61.4401C71.758 61.3622 71.7707 61.3423 71.7317 61.3805C71.6806 61.4374 71.8777 61.2939 71.7479 61.3587C71.7922 61.3365 71.8748 61.329 71.7875 61.3392C71.6552 61.3547 71.9002 61.3367 71.8094 61.3414C71.7563 61.3442 71.6672 61.3192 71.8281 61.3534C71.7426 61.3352 71.8313 61.3509 71.8597 61.3747C71.8353 61.3543 71.7734 61.2856 71.8169 61.3521C71.8551 61.4104 71.8896 61.4189 71.9096 61.499C71.9231 61.553 71.9158 61.6036 71.9078 61.6575C71.876 61.7214 71.8691 61.7364 71.8871 61.7024C71.9001 61.6807 71.8971 61.6827 71.878 61.7084C71.857 61.7331 71.8553 61.7358 71.8727 61.7164C71.8839 61.7036 71.8961 61.6917 71.909 61.6807C71.8789 61.6992 71.8657 61.7115 71.9056 61.6893C71.9791 61.6484 72.0061 61.6647 71.9215 61.6629C71.909 61.6626 71.8463 61.6416 71.8484 61.6312C71.8467 61.64 71.9145 61.6804 71.9311 61.6898C71.9816 61.7183 72.0611 61.7274 72.1107 61.6898Z" fill="#FDCC13"/>
<path d="M75.957 44.2151C75.7074 43.472 74.6976 43.5226 74.3696 44.1842C74.1832 44.5603 74.2132 45.0293 74.4488 45.38C74.6936 45.7446 75.1086 45.9504 75.5466 45.953C76.3786 45.9579 77.0854 45.3079 77.0901 44.4648C77.0924 44.0369 76.8748 43.6056 76.5625 43.3217C76.1499 42.9467 75.6164 42.8189 75.0751 42.9433C74.5498 43.0641 74.19 43.6963 74.3561 44.2096C74.5205 44.7177 75.0754 45.1106 75.6225 44.9286C75.8075 44.8671 75.3811 44.9201 75.561 44.9307C75.3799 44.9 75.3426 44.8962 75.4489 44.9195C75.5234 44.9448 75.5169 44.9413 75.4295 44.9085C75.3443 44.8703 75.3364 44.8706 75.4054 44.9094C75.2887 44.8128 75.2574 44.7901 75.3113 44.8418C75.3627 44.8946 75.3411 44.8637 75.2462 44.7493C75.2838 44.8164 75.2841 44.81 75.2474 44.7298C75.2166 44.6472 75.2123 44.6425 75.2348 44.7155C75.2055 44.619 75.2063 44.5225 75.2368 44.4264C75.1975 44.5808 75.3521 44.2406 75.2589 44.3813C75.2872 44.3454 75.3154 44.3095 75.3438 44.2735C75.3228 44.2972 75.3001 44.3192 75.2759 44.3396C75.31 44.312 75.3442 44.2845 75.3783 44.2569C75.2981 44.3007 75.3245 44.2926 75.4577 44.2325C75.4353 44.2412 75.4122 44.2484 75.3887 44.254C75.3219 44.2703 75.3587 44.2668 75.499 44.2436C75.4754 44.2458 75.4517 44.2461 75.4281 44.2446C75.3606 44.2414 75.3965 44.2461 75.5356 44.2587C75.3789 44.2256 75.7033 44.3465 75.5581 44.2709C75.4378 44.2082 75.6174 44.328 75.6463 44.3683C75.5623 44.2512 75.659 44.4789 75.6393 44.3502C75.6569 44.4646 75.6359 44.5686 75.551 44.6562C75.5215 44.6841 75.4871 44.7024 75.4478 44.7115C75.4674 44.7054 75.4871 44.6994 75.5068 44.6933C75.5823 44.7004 75.3595 44.662 75.4738 44.6986C75.7508 44.7872 76.0512 44.4955 75.957 44.2151Z" fill="#FDCC13"/>
<path d="M27.8274 6.08561C27.3836 5.72001 26.7152 6.05697 26.3376 6.37909C25.8305 6.81152 25.5177 7.46649 25.5479 8.13747C25.6122 9.56242 27.2633 10.4499 28.5409 9.96327C30.0291 9.39644 30.2417 7.42683 29.1835 6.3409C27.8868 5.01011 25.4974 6.03038 25.5995 7.90363C25.6619 9.04949 26.7973 10.0442 27.957 9.7569C29.0518 9.4856 29.8781 8.1457 29.2238 7.10794C28.9767 6.7162 28.5379 6.48661 28.073 6.55653C27.6692 6.61719 27.1745 6.93491 27.113 7.3838C27.0929 7.5298 27.073 7.67595 27.0538 7.82211C27.0676 7.66097 27.1424 7.53876 27.2784 7.45548C27.4569 7.35295 27.8039 7.37704 27.8913 7.5934C27.9043 7.67463 27.9084 7.75586 27.9034 7.83709C27.7584 7.96194 27.7381 7.99044 27.8426 7.92228C27.9517 7.85619 27.8514 7.92023 27.7681 7.92713C27.7239 7.91876 27.6898 7.89584 27.666 7.85824C27.7503 7.95137 27.7687 7.96282 27.7214 7.89291C27.8316 8.05331 27.8116 8.03759 27.837 8.16421C27.8317 8.13806 27.8392 8.21033 27.8048 8.21738C27.5344 8.27246 27.0779 8.26982 26.9614 7.81138C26.7779 7.08944 27.5836 6.84575 27.8626 6.35735C27.9079 6.27803 27.9037 6.14833 27.8274 6.08561Z" fill="#FDCC13"/>
<path d="M0.54742 39.0403C0.605147 38.9636 0.703269 38.7809 0.809762 38.7565C1.07049 38.6966 1.0201 38.2578 0.74557 38.2819C0.0350788 38.3439 -0.0355727 39.2252 0.235727 39.7365C0.660524 40.5369 1.72296 40.716 2.542 40.5603C3.55743 40.3674 3.95593 39.2753 3.4029 38.427C2.72076 37.3809 1.43139 37.6694 0.53802 38.2327C-0.21595 38.7082 -0.141772 39.6707 0.53802 40.1602C1.28376 40.697 2.20489 40.4893 2.86089 39.9329C3.28466 39.5736 3.27335 38.8583 2.94917 38.4513C2.6313 38.0522 1.95034 37.8195 1.49337 38.1606C1.33635 38.2778 1.46355 38.1627 1.49778 38.196C1.49748 38.1957 1.64951 38.2251 1.6645 38.2327C1.73985 38.817 1.81505 39.4013 1.89041 39.9857C1.87954 39.9954 2.14114 39.7536 2.14467 39.7856C2.12998 39.6556 2.65084 40.0759 1.97046 39.7091C1.73647 39.5829 2.23677 39.0266 1.99499 38.9884C1.90965 38.9749 1.73897 39.07 1.64775 39.0861C1.17316 39.1697 0.978827 38.9898 0.986906 38.5236C0.825771 38.5236 0.664784 38.5236 0.50365 38.5236C0.513344 38.6399 0.357497 38.8075 0.296539 38.8937C0.187549 39.0484 0.437255 39.1866 0.54742 39.0403Z" fill="#FDCC13"/>
<path d="M76.223 24.0493C75.7572 24.3508 75.4635 24.9409 75.665 25.4877C75.8981 26.1204 76.6679 26.2661 77.2273 25.9725C77.9561 25.59 77.894 24.4999 77.1722 24.1409C76.4397 23.7765 75.5973 24.1373 75.1754 24.7922C75.7611 24.9509 76.3467 25.1095 76.9323 25.2682C76.9335 25.2524 76.9345 25.2366 76.9357 25.2207C76.8925 25.3804 76.8493 25.5402 76.8062 25.6999C76.5332 26.0483 76.1913 26.1332 75.7804 25.9546C75.6623 25.8365 75.5441 25.7184 75.426 25.6001C75.2774 25.2408 75.3061 24.9353 75.5125 24.6834C75.6581 24.5985 75.8038 24.5136 75.9494 24.4288C76.0067 24.4234 76.0639 24.418 76.1212 24.4125C75.6078 24.431 75.1136 24.8516 75.138 25.3958C75.164 25.9756 75.5716 26.3202 76.1212 26.3791C76.5491 26.425 76.9604 26.1333 77.1643 25.7795C77.4406 25.3002 77.3112 24.6608 76.8774 24.3257C76.5072 24.0397 75.9934 23.9982 75.5905 24.2533C75.146 24.5349 74.9767 25.0117 75.0802 25.5186C75.1593 25.9058 75.5985 26.2284 75.9893 26.2107C76.4146 26.1916 76.7713 25.9296 76.8984 25.5186C76.9505 25.35 76.7957 25.6946 76.8884 25.555C76.7962 25.6668 76.7818 25.6871 76.8452 25.616C76.8579 25.6038 76.8705 25.5917 76.8831 25.5796C76.885 25.5906 76.7179 25.7081 76.874 25.5962C77.0011 25.5051 76.7079 25.642 76.8526 25.6079C76.7188 25.6195 76.6841 25.6249 76.7483 25.6244C76.8123 25.6255 76.7777 25.6211 76.6441 25.6113C76.4953 25.5738 76.3705 25.4581 76.3339 25.303C76.3197 25.2496 76.3186 25.1968 76.3311 25.144C76.342 25.0785 76.3419 25.0748 76.3305 25.1332C76.3728 25.0474 76.3817 25.0271 76.3571 25.0722C76.3339 25.1114 76.3452 25.0994 76.3911 25.0359C76.3098 25.0961 76.4251 25.0347 76.4548 25.0217C76.3775 25.0555 76.4504 25.0268 76.5077 25.0348C76.431 25.0242 76.4923 25.014 76.5196 25.0522C76.5052 25.0321 76.4793 24.9886 76.4933 25.0308C76.4392 24.8673 76.4789 24.669 76.5907 24.5255C76.7844 24.2775 76.5393 23.8445 76.223 24.0493Z" fill="#FDCC13"/>
<path d="M59.9906 45.3796C59.975 45.4434 59.9594 45.5071 59.9424 45.5708C59.9164 45.6697 59.8903 45.7674 59.8643 45.8649C59.8565 45.8936 59.8485 45.9235 59.8396 45.9522C59.781 46.1578 59.7185 46.3634 59.6522 46.5664C59.6497 46.5769 59.6457 46.5886 59.6419 46.6002C59.4584 47.1559 59.2462 47.7013 59.0042 48.2349C58.8585 48.5565 58.7022 48.8739 58.5357 49.1876C58.481 49.2918 58.4237 49.3946 58.3665 49.4974C58.3105 49.5976 58.2545 49.6966 58.1961 49.7955C58.1934 49.8019 58.1909 49.8072 58.187 49.811C58.1283 49.9112 58.0699 50.0102 58.0086 50.1077C57.9722 50.1688 57.9331 50.2301 57.8954 50.2899C57.8629 50.3419 57.8303 50.394 57.7965 50.4447C57.7368 50.5371 57.6768 50.6282 57.6156 50.7181C57.5531 50.8105 57.4906 50.9028 57.4255 50.9939C57.3604 51.0876 57.294 51.1787 57.2276 51.2698C57.1743 51.3439 57.1195 51.4155 57.0662 51.4872C57.0233 51.5444 56.979 51.6004 56.9361 51.6564C56.8788 51.7319 56.8202 51.806 56.7604 51.8789C56.7122 51.94 56.6627 52.0013 56.612 52.0624C56.2931 52.4515 55.9574 52.8263 55.6047 53.1894C55.5423 53.2545 55.4772 53.3196 55.4133 53.3846C55.3105 53.4875 55.2063 53.5903 55.0997 53.6918C55.0268 53.7608 54.9525 53.831 54.8772 53.9001C54.7912 53.9794 54.7053 54.0589 54.6169 54.137C54.5309 54.2138 54.4438 54.2905 54.3566 54.366C54.2511 54.4584 54.1432 54.5494 54.0337 54.638C53.9596 54.6991 53.8854 54.7591 53.8112 54.819C53.7201 54.8918 53.6277 54.9647 53.534 55.0364C53.4521 55.1015 53.3688 55.1639 53.2842 55.2265C53.2646 55.2433 53.2438 55.2589 53.2217 55.2733C53.1385 55.3357 53.0539 55.397 52.9692 55.4581C52.8742 55.5258 52.7778 55.5935 52.6816 55.6611C52.5853 55.7275 52.4877 55.7939 52.3901 55.8589C52.2924 55.924 52.1949 55.9878 52.096 56.0515C52.096 56.0515 52.0947 56.0542 52.0934 56.0542C51.9958 56.1166 51.8968 56.1792 51.798 56.2403C51.6978 56.3014 51.5975 56.3626 51.4973 56.4224C51.2955 56.5434 51.0913 56.6605 50.8857 56.7738C50.7868 56.8297 50.6852 56.8844 50.585 56.9377C50.5812 56.9403 50.5772 56.9428 50.5721 56.9441C50.4692 56.9988 50.3677 57.0521 50.2649 57.1043C50.1661 57.1551 50.0659 57.2044 49.9669 57.2539C49.9591 57.2579 49.95 57.2617 49.9422 57.2657C49.8667 57.3021 49.7913 57.3385 49.7157 57.3736C49.4776 57.4882 49.2355 57.5975 48.9908 57.703C43.3386 60.1367 34.6266 60.5076 29.3584 56.8504C25.6452 54.2736 22.9435 50.7023 21.5744 46.5363C20.5566 43.4401 20.4578 40.0642 21.2373 36.9081C21.7305 34.9129 22.5557 33.0101 23.6449 31.2519C25.2081 28.727 27.3099 26.4989 29.737 24.716C33.6101 21.8696 38.6247 20.1569 43.3921 20.5318C42.6879 21.6329 41.6194 22.5465 41.2408 23.8726C41.1106 24.3931 40.8503 24.9137 40.7202 25.4343C39.6791 28.9483 37.4665 33.6335 40.7202 36.4968C41.5726 37.2477 42.917 36.9094 43.9062 36.7766C44.0052 36.7635 44.108 36.7493 44.2042 36.7753C44.3305 36.8104 44.4307 36.9081 44.514 37.0096C45.0905 37.7111 45.1347 38.734 44.8524 39.5968C44.3696 41.0661 42.4291 42.4952 42.6321 44.2066C42.6412 44.2821 42.6543 44.3589 42.6725 44.4357C43.0225 45.9519 43.9648 46.9475 45.1738 47.5944C46.6953 48.4091 48.6383 48.6694 50.3472 48.7161C53.1675 48.7916 55.4477 46.8147 57.1239 44.7245C57.4142 44.3627 57.6771 43.9787 57.9374 43.5948C57.9556 43.5688 57.9725 43.5428 57.9907 43.5166C58.5399 42.7071 59.0891 41.8976 59.6383 41.0882C59.8388 40.7928 60.0081 40.3802 60.1225 40.0417C60.2748 40.3164 60.3788 40.6236 60.4439 40.9527C60.7194 42.3432 60.3121 44.1171 59.9906 45.3796Z" fill="#FDCC13"/>
<path d="M29.9308 32.131C27.9156 32.8991 26.3553 34.8602 26.766 37.1831C27.1296 39.2317 29.2962 40.9395 31.6356 40.9182C35.6992 40.8812 37.495 36.5634 35.5332 33.7809C34.0924 31.7369 31.8131 31.4135 29.9308 32.131Z" fill="white"/>
<path d="M33.7525 36.256C33.201 35.132 31.8075 34.4296 30.3356 34.7845C29.3503 35.022 28.4979 35.7556 28.1161 36.6946C27.7983 37.4766 28.0374 38.4608 28.5262 39.1177C29.056 39.8296 30.2991 40.1102 31.152 40.1294C32.066 40.1501 32.9765 39.6754 33.4828 38.9141C34.1132 37.9662 34.1248 37.015 33.7525 36.256Z" fill="#1D1D1B"/>
<path d="M32.0189 38.3312C33.1726 38.2397 33.569 36.4594 32.8181 35.7288C31.8193 34.7569 30.6354 36.4362 30.8822 37.3864C31.0169 37.9046 31.4853 38.3735 32.0189 38.3312Z" fill="white"/>
<path d="M45.1735 47.5947C44.6412 48.0242 44.0296 48.3443 43.3553 48.5097C42.6591 48.6802 41.9327 48.6867 41.2158 48.6425C38.7378 48.4888 37.3296 46.115 36.5579 44.0587C37.6316 44.2215 38.6883 44.172 39.7712 44.2266C40.7239 44.2735 41.6804 44.267 42.6318 44.2071C42.6409 44.2826 42.654 44.3594 42.6722 44.4362C43.0222 45.9522 43.9645 46.9478 45.1735 47.5947Z" fill="#E8770A"/>
<path d="M60.411 42.6243C60.3499 43.5679 60.2067 44.488 59.9906 45.3794C59.975 45.4432 59.9594 45.5069 59.9424 45.5707C59.9164 45.6695 59.8903 45.7672 59.8643 45.8647C59.8565 45.8934 59.8485 45.9234 59.8396 45.952C59.7823 46.1576 59.7199 46.3633 59.6522 46.5663C59.6497 46.5767 59.6457 46.5885 59.6419 46.6001C59.4597 47.1571 59.2462 47.7024 59.0042 48.2348C58.8597 48.5575 58.7036 48.875 58.5357 49.1875C58.481 49.2916 58.4237 49.3944 58.3665 49.4973C58.3105 49.5974 58.2545 49.6964 58.1961 49.7953C58.1934 49.8018 58.1909 49.807 58.187 49.8109C58.1283 49.911 58.0699 50.01 58.0086 50.1076C57.9722 50.1687 57.9331 50.2299 57.8954 50.2897C57.8629 50.3417 57.8303 50.3939 57.7965 50.4445C57.7368 50.5369 57.6768 50.628 57.6156 50.7179C57.5531 50.8103 57.4906 50.9027 57.4255 50.9937C57.3604 51.0875 57.294 51.1785 57.2276 51.2696C57.1743 51.3438 57.1195 51.4153 57.0662 51.487C57.0233 51.5443 56.979 51.6002 56.9361 51.6562C56.8788 51.7317 56.8202 51.8059 56.7604 51.8787C56.7122 51.9398 56.6627 52.0011 56.612 52.0622C56.2931 52.4513 55.9574 52.8262 55.6047 53.1893C55.5423 53.2543 55.4772 53.3194 55.4133 53.3845C55.3105 53.4873 55.2063 53.5901 55.0997 53.6916C55.0268 53.7606 54.9525 53.8309 54.8772 53.8999C54.7912 53.9792 54.7053 54.0587 54.6169 54.1368C54.5309 54.2136 54.4438 54.2903 54.3566 54.3658C54.2511 54.4582 54.1432 54.5493 54.0337 54.6379C53.9596 54.699 53.8854 54.7589 53.8112 54.8188C53.7201 54.8917 53.6277 54.9645 53.534 55.0362C53.4521 55.1013 53.3688 55.1637 53.2842 55.2263C53.2646 55.2432 53.2438 55.2587 53.2217 55.2731C53.1385 55.3356 53.0539 55.3968 52.9692 55.4579C52.8742 55.5256 52.7778 55.5934 52.6816 55.6609C52.5853 55.7273 52.4877 55.7937 52.3901 55.8588C52.2924 55.9239 52.1949 55.9876 52.096 56.0513C52.096 56.0513 52.0947 56.054 52.0934 56.054C51.9958 56.1164 51.8968 56.179 51.798 56.2401C51.6978 56.3012 51.5975 56.3625 51.4973 56.4222C51.2955 56.5446 51.0913 56.6617 50.8857 56.7736C50.7868 56.8295 50.6852 56.8842 50.585 56.9375C50.5812 56.9402 50.5772 56.9427 50.5721 56.944C50.4692 56.9986 50.3677 57.0519 50.2649 57.1041C50.1661 57.1549 50.0659 57.2043 49.9669 57.2538C49.9591 57.2577 49.95 57.2615 49.9422 57.2655C49.8667 57.3019 49.7913 57.3384 49.7157 57.3735C49.4776 57.4881 49.2355 57.5973 48.9908 57.7028C43.3386 60.1366 34.6266 60.5075 29.3584 56.8503C25.6452 54.2734 22.9435 50.7022 21.5744 46.5362C20.5566 43.4399 20.4578 40.064 21.2373 36.9079C21.7305 34.9127 22.5557 33.0099 23.6449 31.2517C21.97 35.6676 21.4663 40.5558 23.4588 44.7518C25.3056 48.6406 29.0499 51.3567 33.0609 52.9197C37.0928 54.4905 41.5764 55.0411 45.801 54.1001C50.0243 53.1591 53.9534 50.6578 56.2777 47.0084C56.9597 45.9373 57.4985 44.7869 57.9371 43.5946C57.9553 43.5686 57.9722 43.5426 57.9904 43.5165C58.5396 42.707 59.0888 41.8975 59.6381 41.088C59.8386 40.7926 60.0078 40.38 60.1222 40.0416C60.2745 40.3162 60.3785 40.6234 60.4436 40.9526C60.4578 41.509 60.4475 42.0673 60.411 42.6243Z" fill="#F6A71C"/>
<path d="M33.5507 24.908C33.1063 24.6559 32.5515 24.8177 32.283 25.2533C31.9596 25.778 32.2009 26.383 32.5448 26.8305C32.9141 27.3109 33.4656 27.6767 34.098 27.542C34.6924 27.4154 35.1058 26.929 35.2991 26.3733C35.6964 25.2322 34.8784 23.741 33.6055 23.7304C32.2416 23.719 31.4348 25.3124 31.8206 26.5067C32.0871 27.3316 32.8939 27.8698 33.7598 27.6689C34.5314 27.4898 35.2399 26.6223 34.9358 25.8096C34.4931 24.6269 32.9345 24.8698 32.796 26.0992C32.8578 25.5505 33.3794 25.3938 33.799 25.7334C33.9362 25.8444 33.7773 25.8459 33.8317 25.7457C33.8444 25.8438 33.8496 25.8537 33.8471 25.7754C33.8503 25.6972 33.8464 25.7069 33.835 25.8044C33.845 25.7433 33.8737 25.5932 33.8891 25.6081C33.9069 25.6254 33.8371 25.6778 33.8196 25.6806C33.7991 25.6839 33.4514 25.7284 33.4756 25.6674C33.4819 25.6517 33.6933 25.829 33.6222 25.7641C33.5617 25.7087 33.6683 25.8611 33.6702 25.8945C33.6649 25.7956 33.6447 26.132 33.5936 26.078C33.6065 26.0915 33.7385 25.9662 33.7456 26.0149C33.7426 25.9948 33.6257 25.9416 33.5887 25.9121C33.5248 25.8611 33.4493 25.7392 33.3812 25.6987C33.3734 25.6802 33.3657 25.6618 33.3579 25.6433C33.3547 25.743 33.2967 25.7879 33.184 25.7777C33.6983 25.9036 34.0311 25.1805 33.5507 24.908Z" fill="#FFDC6F"/>
<path d="M29.5474 27.515C29.3185 27.5478 29.1483 27.7552 29.0781 27.962C28.9983 28.1967 29.0513 28.4815 29.2235 28.6621C29.64 29.0988 30.2432 28.6988 30.5593 28.3533C30.7659 28.1273 30.8138 27.7239 30.5593 27.5042C30.3798 27.3492 30.1771 27.2602 29.9372 27.2656C29.6987 27.2709 29.4632 27.3784 29.2955 27.5463C28.9476 27.8943 29.0738 28.4857 29.5193 28.6737C29.7219 28.7592 29.9453 28.7515 30.1383 28.6386C30.2427 28.5767 30.326 28.4936 30.3878 28.389C30.4507 28.2806 30.4824 28.1635 30.4827 28.0379C30.4836 28.0307 30.4845 28.0234 30.4854 28.0162C30.4772 28.0772 30.4691 28.1381 30.4609 28.1989C30.4636 28.1841 30.4679 28.1699 30.4739 28.1559C30.4513 28.2094 30.4288 28.263 30.4062 28.3164C30.4097 28.3095 30.4133 28.3026 30.4168 28.2957C30.3821 28.3405 30.3475 28.3853 30.3129 28.4301C30.3287 28.411 30.3436 28.3958 30.3627 28.38C30.319 28.4138 30.275 28.4478 30.2313 28.4817C30.2517 28.4677 30.2705 28.457 30.2931 28.447C30.2426 28.4683 30.192 28.4896 30.1415 28.5111C30.1649 28.5031 30.1854 28.4981 30.2098 28.4949C30.1549 28.5023 30.1 28.5096 30.045 28.5171C30.0606 28.5158 30.0762 28.5161 30.0917 28.518C30.0377 28.5108 29.9836 28.5034 29.9296 28.4962C29.9453 28.4983 29.9607 28.5021 29.9755 28.5077C29.8357 28.2615 29.696 28.0153 29.5562 27.769C29.5531 27.7778 29.5502 27.7866 29.5471 27.7954C29.567 27.7481 29.587 27.7007 29.607 27.6534C29.5969 27.6754 29.5858 27.6963 29.5731 27.7169C29.5613 27.7358 29.5183 27.7925 29.5778 27.7171C29.6414 27.6367 29.5844 27.7079 29.5682 27.7254C29.5521 27.743 29.535 27.7599 29.5174 27.7762C29.5021 27.7903 29.4462 27.8347 29.5193 27.7784C29.5969 27.7188 29.5247 27.7725 29.5054 27.7846C29.4648 27.8098 29.4222 27.831 29.3781 27.8496C29.5171 27.8314 29.6561 27.8134 29.795 27.7951C29.7955 27.7953 29.9252 27.8604 29.8701 27.8245C29.8032 27.7812 29.9559 27.9044 29.9218 27.8689C29.884 27.8297 29.9967 27.9716 29.965 27.9265C29.9404 27.8915 29.9485 27.8474 29.9857 27.9805C29.9691 27.921 29.991 28.0444 29.9913 28.0463C29.9896 28.0346 29.9895 28.02 29.9911 28.0083C29.9879 28.0349 29.9848 28.0614 29.9816 28.088C29.991 28.059 29.9883 28.0644 29.9736 28.104C29.968 28.1274 29.9569 28.1474 29.9398 28.1643C29.9141 28.1945 29.9119 28.1991 29.9334 28.1778C30.0569 28.0631 30.0875 27.8401 29.9954 27.6972C29.8912 27.5359 29.7302 27.4889 29.5474 27.515Z" fill="#FFDC6F"/>
</svg>
